<svg viewBox="0 0 800 1400" xmlns="http://www.w3.org/2000/svg">
  <!-- Header -->
  <text x="50" y="20" font-size="14" fill="#666">Page Title</text>
  <rect x="50" y="40" width="300" height="50" fill="#ddd"/>
  <text x="70" y="70" font-size="24" fill="#444">Our Services</text>

  <!-- Services Grid -->
  <g transform="translate(50, 140)">
    <text x="0" y="-20" font-size="14" fill="#666">Main Services Section</text>
    <g transform="translate(0, 0)">
      <!-- Service Card 1 -->
      <rect width="230" height="200" rx="8" fill="#e0e0e0"/>
      <circle cx="115" cy="50" r="30" fill="#ddd"/>
      <text x="85" y="110" font-size="16" fill="#444">Commercial</text>
      <text x="45" y="150" font-size="14" fill="#666">Modern office buildings</text>
      <text x="45" y="170" font-size="14" fill="#666">and retail spaces</text>
      
      <!-- Service Card 2 -->
      <g transform="translate(250, 0)">
        <rect width="230" height="200" rx="8" fill="#e0e0e0"/>
        <circle cx="115" cy="50" r="30" fill="#ddd"/>
        <text x="85" y="110" font-size="16" fill="#444">Residential</text>
        <text x="45" y="150" font-size="14" fill="#666">Custom homes and</text>
        <text x="45" y="170" font-size="14" fill="#666">residential complexes</text>
      </g>

      <!-- Service Card 3 -->
      <g transform="translate(500, 0)">
        <rect width="230" height="200" rx="8" fill="#e0e0e0"/>
        <circle cx="115" cy="50" r="30" fill="#ddd"/>
        <text x="85" y="110" font-size="16" fill="#444">Industrial</text>
        <text x="45" y="150" font-size="14" fill="#666">Manufacturing and</text>
        <text x="45" y="170" font-size="14" fill="#666">industrial facilities</text>
      </g>
    </g>
  </g>

  <!-- Process Timeline -->
  <g transform="translate(50, 390)">
    <text x="0" y="-20" font-size="14" fill="#666">Process Timeline Section</text>
    <rect width="700" height="50" fill="#ddd"/>
    <text x="300" y="30" font-size="20" fill="#444">Our Process</text>
    
    <!-- Timeline Items -->
    <g transform="translate(0, 80)">
      <g transform="translate(0, 0)">
        <circle cx="40" cy="40" r="40" fill="#e0e0e0"/>
        <text x="30" y="45" font-size="16" fill="#444">1</text>
        <rect x="100" y="20" width="600" height="80" fill="#e0e0e0"/>
        <text x="120" y="50" font-size="16" fill="#444">Planning</text>
        <text x="120" y="75" font-size="14" fill="#666">Project scope definition and initial consultation</text>
      </g>

      <g transform="translate(0, 140)">
        <circle cx="40" cy="40" r="40" fill="#e0e0e0"/>
        <text x="30" y="45" font-size="16" fill="#444">2</text>
        <rect x="100" y="20" width="600" height="80" fill="#e0e0e0"/>
        <text x="120" y="50" font-size="16" fill="#444">Design</text>
        <text x="120" y="75" font-size="14" fill="#666">Architectural planning and documentation</text>
      </g>

      <g transform="translate(0, 280)">
        <circle cx="40" cy="40" r="40" fill="#e0e0e0"/>
        <text x="30" y="45" font-size="16" fill="#444">3</text>
        <rect x="100" y="20" width="600" height="80" fill="#e0e0e0"/>
        <text x="120" y="50" font-size="16" fill="#444">Construction</text>
        <text x="120" y="75" font-size="14" fill="#666">Quality execution and project management</text>
      </g>

      <g transform="translate(0, 420)">
        <circle cx="40" cy="40" r="40" fill="#e0e0e0"/>
        <text x="30" y="45" font-size="16" fill="#444">4</text>
        <rect x="100" y="20" width="600" height="80" fill="#e0e0e0"/>
        <text x="120" y="50" font-size="16" fill="#444">Completion</text>
        <text x="120" y="75" font-size="14" fill="#666">Final inspection and handover</text>
      </g>
    </g>
  </g>

  <!-- CTA Section -->
  <g transform="translate(50, 1000)">
    <text x="0" y="-20" font-size="14" fill="#666">Call to Action Section</text>
    <rect width="700" height="200" rx="8" fill="#e0e0e0"/>
    <text x="200" y="80" font-size="24" fill="#444">Ready to Start Your Project?</text>
    <rect x="250" y="120" width="200" height="40" rx="8" fill="#ddd"/>
    <text x="290" y="145" font-size="16" fill="#444">Contact Us Today</text>
  </g>
</svg>